# xmcd
#
# Track frame offsets:
# 150
# 33676
# 54613
# 73198
# 92939
# 119487
# 137922
# 166732
# 191467
# 208675
# 229911
# 252799
# 282545
#
# Disc length: 4164 seconds
#
#
# Revision: 3
# Processed by: cddbd v1.5.2PL0 Copyright (c) Steve Scherf et al.
# Submitted via: FreeRIP 2.80 
#
DISCID=ca10420d
DTITLE=Various  - La Mezzanine de l'Alcazar vol 2
DYEAR=1900
DGENRE=
TTITLE0=Sun Trust - Dream of you
TTITLE1=Charles Schillings - No communication
TTITLE2=Next evidence - Over the weaves
TTITLE3=Mark Grant - Jazzy Kinda Sum'n
TTITLE4=Blue Six - Pure
TTITLE5=Sunday Brunch - Things you said
TTITLE6=Playing for the city - My heart belongs to daddy
TTITLE7=Pascal - Flight time
TTITLE8=Glenn Underground - Fly with me
TTITLE9=To-Ka Project - Two stones ahead
TTITLE10=Spero - Everything
TTITLE11=Lovetronic - You are love
TTITLE12=8FatFat8 - Rise-up and walc
EXTD=
EXTT0=
EXTT1=
EXTT2=
EXTT3=
EXTT4=
EXTT5=
EXTT6=
EXTT7=
EXTT8=
EXTT9=
EXTT10=
EXTT11=
EXTT12=
PLAYORDER=
